<svg xmlns="http://www.w3.org/2000/svg" viewBox="0 0 226.77 136.08">
	<path d="M198.16,559.47h-5.87V535h5.87v24.49Zm17.32,0h-3.06l-.5-1.51a6.65,6.65,0,0,1-5.28,2.26A7.2,7.2,0,0,1,202.4,559a4.35,4.35,0,0,1-2.06-3.73V539q0-2.43,2.73-3.77a11,11,0,0,1,4.87-1,11.32,11.32,0,0,1,4.86,1,4.08,4.08,0,0,1,2.68,3.77v5h-5.87v-5.28c0-1-.56-1.51-1.7-1.51s-1.69.5-1.69,1.51v16.69c0,1,.56,1.55,1.69,1.55s1.7-.51,1.7-1.55v-5.33h-2.47v-3.06h8.34v12.42Zm17.24-4.16a4.09,4.09,0,0,1-2.68,3.78,11.8,11.8,0,0,1-9.73,0c-1.82-.9-2.73-2.15-2.73-3.78V539q0-2.43,2.73-3.77a11,11,0,0,1,4.86-1,11.34,11.34,0,0,1,4.87,1,4.08,4.08,0,0,1,2.68,3.77v16.27Zm-5.87.13V538.75c0-1-.57-1.51-1.7-1.51s-1.7.5-1.7,1.51v16.69c0,1,.57,1.55,1.7,1.55s1.7-.51,1.7-1.55Zm23.11,4h-5.87v-8.68c0-1.37-1-2.06-2.9-2.06h-.42v10.74H234.9V539a4.09,4.09,0,0,1,2.69-3.77,11.42,11.42,0,0,1,4.88-1,11.11,11.11,0,0,1,4.84,1A4.13,4.13,0,0,1,250,539v4.41c0,2.35-1.5,3.62-4.48,3.81,3,.25,4.48,1.43,4.48,3.53v8.68Zm-5.58-16v-3.11q0-3.06-1.89-3.06c-1.14,0-1.72.49-1.72,1.47V546h0q3.57,0,3.57-2.51Zm41,16h-5.87V539c0-1-.59-1.55-1.76-1.55a1.48,1.48,0,0,0-1.68,1.68v20.3h-5.87V538.83a1.13,1.13,0,0,0-.54-1,2,2,0,0,0-1.14-.38c-1.14,0-1.72.52-1.72,1.55v20.43H260.9v-20.3q0-2.38,2.65-3.78a10.14,10.14,0,0,1,4.79-1.13,7.74,7.74,0,0,1,4.79,1.39,8.4,8.4,0,0,1,4.91-1.39,10.06,10.06,0,0,1,4.75,1.13,4.21,4.21,0,0,1,2.56,3.78v20.3Zm17.32,0H296.8v-9.69h-3.4v9.69h-5.87V539a4.09,4.09,0,0,1,2.69-3.77,12.32,12.32,0,0,1,9.77,0,4.08,4.08,0,0,1,2.68,3.77v20.43Zm-5.87-12.84V539c0-1-.56-1.55-1.7-1.55s-1.7.51-1.7,1.55v7.67ZM320,559.47h-5.87v-8.68c0-1.37-1-2.06-2.89-2.06h-.42v10.74H304.9V539a4.07,4.07,0,0,1,2.69-3.77,11.34,11.34,0,0,1,4.87-1,11.08,11.08,0,0,1,4.84,1A4.13,4.13,0,0,1,320,539v4.41c0,2.35-1.5,3.62-4.48,3.81,3,.25,4.48,1.43,4.48,3.53v8.68Zm-5.58-16v-3.11c0-2-.63-3.06-1.88-3.06s-1.72.49-1.72,1.47V546h0q3.56,0,3.56-2.51Zm22.78-3.23V544h-5.88v-5.41c0-1-.56-1.51-1.67-1.51s-1.68.51-1.68,1.51v16.82c0,1,.56,1.55,1.68,1.55s1.67-.51,1.67-1.55V550h5.88v5.36q0,4.83-7.55,4.83t-7.55-4.83V538.92q0-4.67,7.55-4.66t7.55,6Zm17.06,19.25h-5.87V547.72h-3.23v11.75h-5.87V535h5.87v9.35h3.23V535h5.87v24.49Zm17.41-4.16a4.1,4.1,0,0,1-2.69,3.78,11.8,11.8,0,0,1-9.73,0c-1.81-.9-2.72-2.15-2.72-3.78V535h5.87v20.46c0,1,.57,1.55,1.7,1.55s1.7-.51,1.7-1.55V535h5.87v20.33Zm18.49,4.16H384l-4.24-12.33v12.33h-5.87V535h5.87v10.86L384.45,535h5.66l-4.82,11.19,4.82,13.3Z" transform="translate(-192 -424.14)" fill="#201600" fill-rule="evenodd" />
	<path d="M192,467.84a1,1,0,0,0,1,1h11.73v36.72H192.69c-.32,0-.69.49-.69,1.87v15.35c0,.69.27,1.38,1.11,1.38h51.82c.69,0,.8-.49.8-1.67V506.83c0-.69-.26-1.09-.8-1.09H232.88V468.92h12.05c.43,0,.8-.39.8-1.37V451.2c0-.68-.64-.88-1.11-.88H192.85c-.48,0-.85.59-.85,1.87v15.65Z" transform="translate(-192 -424.14)" fill="#ec1c24" />
	<path d="M345.61,524.15c.37,0,.63-.19.63-1V510.08c0-.5-.26-1.09-.63-1.09h-7.76v-8.46c0-5.52,2.66-13.79,9.24-13.79,8.5,0,9.56,6,9.56,16.25v6H349c-.37,0-.63.49-.63,1.18v12.41c0,1,.21,1.57.85,1.57h38.7c.32,0,.48-.1.48-1V509.68a.75.75,0,0,0-.8-.69h-8.92V497.07a27.4,27.4,0,0,0,10.26,2,30.64,30.64,0,0,0,22.46-9.69h0a4.56,4.56,0,1,1,4.25-6.22c9.81-19.54-5.3-44.49-17.92-59,3.25,12,3.85,23.91-2.12,35.86-.53-7.24-4.06-13-11-17.42,1.27,10.37.25,17.44-8.27,15.94a7.11,7.11,0,0,0-3.94.38c-.17-5-1.49-9-3.1-9-1.35,0-2.51,2.81-2.93,6.74-.68-3.59-1.9-6-3.29-6-2.12,0-3.84,5.57-3.84,12.45a34,34,0,0,0,.77,7.46c-9.28-.28-19.15,4.54-22.22,12.13-5.73-15.39-34.71-16-40.46-1.09h-.16v-8.95c0-.5-.26-1-.69-1h-31c-.53,0-.85.69-.85,1.87v12.31a.86.86,0,0,0,.95,1h9.08V509h-9.4c-.26,0-.63.4-.63,1v12.79c0,.5.21,1.38.53,1.38h39.08c.42,0,.69-.19.69-1V510.08c0-.5-.27-1.09-.69-1.09h-7.12v-2.46c0-8.37,0-19.69,9.08-19.69,8.65,0,9.19,5.42,9.19,16.25V509h-7.7c-.43,0-.69.49-.69,1.18v12.41c0,1,.21,1.57.85,1.57Zm47-50.29-9.21-9L395.58,469l-2.94,4.82Zm-136.18,11.7c.38,0,.64-.49.85-1l14.07-32.69c.22-.49.16-1.57-.42-1.57H252.8c-.58,0-.85.69-1,1.67l-5.74,31.8c-.16,1.08,0,1.77.27,1.77Z" transform="translate(-192 -424.14)" fill="#201600" />
</svg>